v 1.0 1.0 -1.0
v 1.0 -1.0 -1.0
v 1.0 1.0 1.0
v 1.0 -1.0 1.0
v -1.0 1.0 -1.0
v -1.0 -1.0 -1.0
v -1.0 1.0 1.0
v -1.0 -1.0 1.0
# 8 vertices

vt 0.625 0.5 0.0000
vt 0.875 0.5 0.0000
vt 0.875 0.75 0.0000
vt 0.625 0.75 0.0000
vt 0.375 0.75 0.0000
vt 0.625 1.0 0.0000
vt 0.375 1.0 0.0000
vt 0.375 0.0 0.0000
vt 0.625 0.0 0.0000
vt 0.625 0.25 0.0000
vt 0.375 0.25 0.0000
vt 0.125 0.5 0.0000
vt 0.375 0.5 0.0000
vt 0.125 0.75 0.0000
# 14 texture coords

vn 0.5773502691896258 0.5773502691896258 -0.5773502691896258
vn 0.5773502691896258 -0.5773502691896258 -0.5773502691896258
vn 0.5773502691896258 0.5773502691896258 0.5773502691896258
vn 0.5773502691896258 -0.5773502691896258 0.5773502691896258
vn -0.5773502691896258 0.5773502691896258 -0.5773502691896258
vn -0.5773502691896258 -0.5773502691896258 -0.5773502691896258
vn -0.5773502691896258 0.5773502691896258 0.5773502691896258
vn -0.5773502691896258 -0.5773502691896258 0.5773502691896258
# 8 normals

f 1/1/1 5/2/5 7/3/7 3/4/3
f 4/5/4 3/4/3 7/6/7 8/7/8
f 8/8/8 7/9/7 5/10/5 6/11/6
f 6/12/6 2/13/2 4/5/4 8/14/8
f 2/13/2 1/1/1 3/4/3 4/5/4
f 6/11/6 5/10/5 1/1/1 2/13/2
# 6 polygons - 0 triangles

